<svg width="24" height="24" viewBox="0 0 24 24" fill="none" xmlns="http://www.w3.org/2000/svg">
<path fill-rule="evenodd" clip-rule="evenodd" d="M13.7641 21.8449C18.4456 21.0116 22 16.9209 22 12C22 6.47715 17.5228 2 12 2C6.47715 2 2 6.47715 2 12C2 17.5228 6.47715 22 12 22C12.0242 22 12.0484 21.9999 12.0725 21.9997C11.556 21.9961 11.0397 21.9543 10.5279 21.8742V14.6375H7.89844V11.644H10.5279V9.36246C10.5279 6.76699 12.074 5.33333 14.4395 5.33333C15.5726 5.33333 16.7577 5.5356 16.7577 5.5356V8.08414H15.4518C14.1654 8.08414 13.7641 8.88329 13.7641 9.70227V11.644H16.6363L16.1772 14.6375H13.7641V21.8449Z" fill="white"/>
</svg>
