<svg width="24" height="24" viewBox="0 0 24 24" fill="none" xmlns="http://www.w3.org/2000/svg">
<path d="M20.1982 12C20.1982 9.32989 20.188 9.01364 20.1399 7.95918C20.0954 6.98419 19.9325 6.4547 19.7956 6.10229C19.6142 5.63555 19.3974 5.30239 19.0475 4.95248C18.6976 4.60257 18.3644 4.38583 17.8977 4.20447C17.5453 4.06752 17.0158 3.90461 16.0409 3.86011C14.9864 3.812 14.6701 3.80184 12 3.80184C9.32985 3.80184 9.0136 3.812 7.95914 3.86011C6.98415 3.90461 6.45466 4.06752 6.10225 4.20447C5.63551 4.38583 5.30235 4.60257 4.95244 4.95248C4.60253 5.30239 4.38579 5.63555 4.20443 6.10229C4.06748 6.4547 3.90457 6.98419 3.86007 7.95918C3.81196 9.01348 3.8018 9.32973 3.8018 12C3.8018 14.6703 3.81196 14.9866 3.86007 16.0409C3.90457 17.0158 4.06748 17.5453 4.20443 17.8977C4.38579 18.3645 4.60253 18.6976 4.95244 19.0476C5.30235 19.3975 5.63551 19.6142 6.10225 19.7956C6.45466 19.9325 6.98415 20.0954 7.9591 20.1399C9.0136 20.188 9.32985 20.1982 12 20.1982C14.6701 20.1982 14.9864 20.188 16.0408 20.1399C17.0158 20.0954 17.5453 19.9325 17.8977 19.7956C18.3644 19.6142 18.6976 19.3975 19.0475 19.0476C19.3974 18.6976 19.6142 18.3645 19.7956 17.8977C19.9325 17.5453 20.0954 17.0158 20.1399 16.0409C20.188 14.9864 20.1982 14.6701 20.1982 12ZM22 12C22 14.7159 21.9885 15.0564 21.9398 16.123C21.8912 17.1874 21.7222 17.9143 21.475 18.5504C21.2194 19.208 20.8775 19.7657 20.3216 20.3216C19.7656 20.8775 19.208 21.2195 18.5504 21.475C17.9143 21.7223 17.1874 21.8913 16.1229 21.9399C15.0564 21.9885 14.7158 22 12 22C9.28412 22 8.94358 21.9885 7.87701 21.9399C6.81259 21.8913 6.08569 21.7223 5.44958 21.475C4.79203 21.2195 4.23432 20.8775 3.67839 20.3216C3.12246 19.7657 2.78052 19.208 2.52497 18.5504C2.27775 17.9143 2.10872 17.1874 2.06014 16.123C2.01147 15.0564 2 14.7159 2 12C2 9.28416 2.01147 8.94362 2.06014 7.87705C2.10872 6.81263 2.27775 6.08573 2.52497 5.44962C2.78052 4.79203 3.12246 4.23436 3.67839 3.67843C4.23432 3.1225 4.79199 2.78056 5.44958 2.52501C6.08569 2.27779 6.81259 2.10876 7.87701 2.06018C8.94358 2.01151 9.28412 2 12 2C14.7158 2 15.0564 2.01151 16.1229 2.06018C17.1874 2.10876 17.9143 2.27779 18.5504 2.52501C19.208 2.78056 19.7656 3.1225 20.3216 3.67843C20.8775 4.23436 21.2194 4.79203 21.475 5.44962C21.7222 6.08573 21.8912 6.81263 21.9398 7.87705C21.9885 8.94362 22 9.28416 22 12ZM17.1351 12C17.1351 14.8361 14.836 17.1352 12 17.1352C9.16393 17.1352 6.86483 14.8361 6.86483 12C6.86483 9.16397 9.16393 6.86487 12 6.86487C14.836 6.86487 17.1351 9.16397 17.1351 12ZM8.66663 12C8.66663 13.841 10.159 15.3334 12 15.3334C13.8409 15.3334 15.3333 13.841 15.3333 12C15.3333 10.1591 13.8409 8.66667 12 8.66667C10.159 8.66667 8.66663 10.1591 8.66663 12ZM17.338 5.46201C16.6753 5.46201 16.138 5.99924 16.138 6.66199C16.138 7.32474 16.6753 7.86201 17.338 7.86201C18.0008 7.86201 18.538 7.32474 18.538 6.66199C18.538 5.99924 18.0008 5.46201 17.338 5.46201Z" fill="white"/>
</svg>
