<svg width="24" height="24" viewBox="0 0 24 24" fill="none" xmlns="http://www.w3.org/2000/svg">
<path d="M8.6036 20.6535C16.4769 20.6535 20.7819 14.1315 20.7819 8.47568C20.7819 8.29043 20.7777 8.10602 20.7694 7.92244C21.6071 7.31657 22.3301 6.56638 22.9048 5.70701C22.1236 6.05309 21.295 6.28007 20.4464 6.3804C21.34 5.84537 22.009 5.00417 22.329 4.0131C21.4887 4.51146 20.5696 4.86279 19.6111 5.05197C18.9658 4.36595 18.1124 3.91169 17.183 3.75946C16.2535 3.60723 15.2998 3.76553 14.4693 4.20985C13.6389 4.65417 12.978 5.35977 12.5889 6.21746C12.1999 7.07516 12.1043 8.03717 12.317 8.95464C10.6152 8.86956 8.95037 8.42754 7.43051 7.65729C5.91066 6.88705 4.56979 5.80579 3.49495 4.48372C2.94721 5.42584 2.77934 6.54136 3.02556 7.60294C3.27178 8.66453 3.91356 9.59228 4.8201 10.1971C4.14035 10.1764 3.47553 9.99268 2.88161 9.66141C2.88161 9.67977 2.88161 9.6973 2.88161 9.71649C2.88189 10.7046 3.22397 11.6623 3.84984 12.427C4.47571 13.1917 5.34684 13.7164 6.31547 13.912C5.68498 14.0834 5.02367 14.1085 4.382 13.9855C4.65539 14.836 5.18785 15.5797 5.90486 16.1127C6.62186 16.6456 7.48755 16.9411 8.38079 16.9577C6.8652 18.1489 4.99289 18.7955 3.0652 18.7935C2.72353 18.7926 2.3822 18.7717 2.04297 18.7309C4.00026 19.9872 6.27782 20.6534 8.6036 20.6501" fill="white"/>
</svg>
