<svg width="24" height="24" viewBox="0 0 24 24" fill="none" xmlns="http://www.w3.org/2000/svg">
<path fill-rule="evenodd" clip-rule="evenodd" d="M19.8138 5.37576C20.6744 5.60724 21.352 6.28931 21.582 7.15539C22 8.72527 22 12.0006 22 12.0006C22 12.0006 22 15.2757 21.582 16.8458C21.352 17.7117 20.6744 18.3938 19.8138 18.6253C18.2542 19.0459 12 19.0459 12 19.0459C12 19.0459 5.74582 19.0459 4.18616 18.6253C3.32562 18.3938 2.6479 17.7118 2.41795 16.8457C2 15.2758 2 12.0006 2 12.0006C2 12.0006 2 8.72527 2.41795 7.15539C2.6479 6.28931 3.32562 5.60724 4.18616 5.37576C5.74582 4.95508 12 4.95508 12 4.95508C12 4.95508 18.2542 4.95508 19.8138 5.37576ZM15.1804 11.9997L9.95312 14.9733V9.02588L15.1804 11.9997Z" fill="white"/>
</svg>
